HIERARCHY
ROOT Hips
{
	OFFSET 0.000000 0.000000 0.000000
	CHANNELS 6 Xposition Yposition Zposition Xrotation Yrotation Zrotation
	JOINT LeftUpLeg_virtual
	{
		OFFSET 0.000000 0.000000 0.000000
		CHANNELS 3 Xrotation Yrotation Zrotation
		JOINT LeftUpLeg
		{
			OFFSET 13.026900 -6.336304 -1.092800
			CHANNELS 3 Xrotation Yrotation Zrotation
			JOINT LeftLeg
			{
				OFFSET 0.524474 -46.096886 9.782700
				CHANNELS 3 Xrotation Yrotation Zrotation
				JOINT LeftFoot
				{
					OFFSET -0.524474 -53.427422 -12.948200
					CHANNELS 3 Xrotation Yrotation Zrotation
					JOINT LeftToeBase
					{
						OFFSET 0.192200 -14.009700 16.364100
						CHANNELS 3 Xrotation Yrotation Zrotation
						JOINT LeftToe_End
						{
							OFFSET -1.784700 -0.561700 9.474800
							CHANNELS 3 Xrotation Yrotation Zrotation
							End Site
							{
								OFFSET 0 0 0
							}
						}
					}
				}
			}
		}
	}
	JOINT RightUpLeg_virtual
	{
		OFFSET 0.000000 0.000000 0.000000
		CHANNELS 3 Xrotation Yrotation Zrotation
		JOINT RightUpLeg
		{
			OFFSET -12.883000 -6.336304 -1.092800
			CHANNELS 3 Xrotation Yrotation Zrotation
			JOINT RightLeg
			{
				OFFSET -0.524587 -46.096825 9.782800
				CHANNELS 3 Xrotation Yrotation Zrotation
				JOINT RightFoot
				{
					OFFSET 0.524587 -53.427383 -12.948300
					CHANNELS 3 Xrotation Yrotation Zrotation
					JOINT RightToeBase
					{
						OFFSET -0.192200 -14.009700 16.364100
						CHANNELS 3 Xrotation Yrotation Zrotation
						JOINT RightToe_End
						{
							OFFSET 1.784700 -0.561700 9.474800
							CHANNELS 3 Xrotation Yrotation Zrotation
							End Site
							{
								OFFSET 0 0 0
							}
						}
					}
				}
			}
		}
	}
	JOINT Spine_virtual
	{
		OFFSET 0.000000 0.000000 0.000000
		CHANNELS 3 Xrotation Yrotation Zrotation
		JOINT Spine
		{
			OFFSET 0.072000 7.257294 -0.789700
			CHANNELS 3 Xrotation Yrotation Zrotation
			JOINT Spine1
			{
				OFFSET 0.000000 12.508769 -0.658067
				CHANNELS 3 Xrotation Yrotation Zrotation
				JOINT Spine1_split
				{
					OFFSET 0.000000 12.508769 -0.658067
					CHANNELS 3 Xrotation Yrotation Zrotation
					JOINT Spine2
					{
						OFFSET 0.000000 12.508769 -0.658067
						CHANNELS 3 Xrotation Yrotation Zrotation
						JOINT Neck_virtual
						{
							OFFSET 0.000000 0.000000 0.000000
							CHANNELS 3 Xrotation Yrotation Zrotation
							JOINT Neck
							{
								OFFSET 0.000000 14.033295 7.520400
								CHANNELS 3 Xrotation Yrotation Zrotation
								JOINT Head
								{
									OFFSET 0.000000 8.198502 5.703100
									CHANNELS 3 Xrotation Yrotation Zrotation
									JOINT HeadTop_End
									{
										OFFSET 0.000000 17.760803 13.332701
										CHANNELS 3 Xrotation Yrotation Zrotation
										End Site
										{
											OFFSET 0 0 0
										}
									}
								}
							}
						}
						JOINT LeftShoulder_virtual
						{
							OFFSET 0.000000 0.000000 0.000000
							CHANNELS 3 Xrotation Yrotation Zrotation
							JOINT LeftShoulder
							{
								OFFSET 6.292450 5.785301 -0.669000
								CHANNELS 3 Xrotation Yrotation Zrotation
								JOINT LeftShoulder_split
								{
									OFFSET 6.292450 5.785301 -0.669000
									CHANNELS 3 Xrotation Yrotation Zrotation
									JOINT LeftArm
									{
										OFFSET 13.907140 -6.093903 1.965100
										CHANNELS 3 Xrotation Yrotation Zrotation
										JOINT LeftForeArm
										{
											OFFSET 34.140198 0.000000 0.000000
											CHANNELS 3 Xrotation Yrotation Zrotation
											JOINT LeftHand
											{
												OFFSET 40.960209 0.000000 0.000000
												CHANNELS 3 Xrotation Yrotation Zrotation
												End Site
												{
													OFFSET 0 0 0
												}
											}
										}
									}
								}
							}
						}
						JOINT RightShoulder_virtual
						{
							OFFSET 0.000000 0.000000 0.000000
							CHANNELS 3 Xrotation Yrotation Zrotation
							JOINT RightShoulder
							{
								OFFSET -6.292450 5.785301 -0.669000
								CHANNELS 3 Xrotation Yrotation Zrotation
								JOINT RightShoulder_split
								{
									OFFSET -6.292450 5.785301 -0.669000
									CHANNELS 3 Xrotation Yrotation Zrotation
									JOINT RightArm
									{
										OFFSET -13.907140 -6.093903 1.965100
										CHANNELS 3 Xrotation Yrotation Zrotation
										JOINT RightForeArm
										{
											OFFSET -34.140198 0.000000 0.000000
											CHANNELS 3 Xrotation Yrotation Zrotation
											JOINT RightHand
											{
												OFFSET -40.960209 0.000000 0.000000
												CHANNELS 3 Xrotation Yrotation Zrotation
												End Site
												{
													OFFSET 0 0 0
												}
											}
										}
									}
								}
							}
						}
					}
				}
			}
		}
	}
}
MOTION
Frames: 9
Frame Time: 0.03333333
13.354351 98.016151 -14.208103 0.000000 0.000000 0.000000 57.601697 -6.532854 5.191079 -96.661343 -7.465352 6.948586 52.039191 9.794333 -4.397179 -8.819032 13.716044 -4.668846 -6.889721 -0.000006 -0.000001 0.000000 0.000000 0.000000 57.601697 -6.532854 5.191079 -56.022345 6.088255 -6.693270 58.647091 3.171869 -5.390249 2.594541 -2.859648 5.826787 -17.455923 -0.000003 -0.000001 0.000000 0.000000 0.000000 57.601697 -6.532854 5.191079 6.548553 0.799188 -1.503414 15.303520 1.438346 -1.025663 0.000000 0.000000 0.000000 0.000000 0.000000 0.000000 25.968661 1.556335 -0.351283 -24.974500 -1.109315 4.036045 -18.551946 4.794698 -4.512016 0.000000 0.000000 0.000000 25.968661 1.556335 -0.351283 3.421678 -11.322883 2.011319 0.000000 0.000000 0.000000 -28.741047 -37.156516 -25.888784 0.000011 -44.996634 0.000004 0.000000 0.000000 0.000000 25.968661 1.556335 -0.351283 1.084094 32.109314 6.795039 0.000000 0.000000 0.000000 -35.612408 36.638685 9.333349 -0.000005 24.893104 0.000002 0.000000 0.000000 0.000000 
13.123412 100.084610 -13.595829 0.000000 0.000000 0.000000 55.091292 -6.849287 5.301068 -91.576745 -7.003831 7.155010 48.924966 9.853707 -4.402686 -8.241809 14.035251 -4.602962 -6.672996 -0.000006 0.000002 0.000000 0.000000 0.000000 55.091292 -6.849287 5.301068 -60.683512 7.088341 -6.416649 62.214103 2.571678 -4.932195 0.094557 -2.869738 5.438594 -16.757113 -0.000001 -0.000000 0.000000 0.000000 0.000000 55.091292 -6.849287 5.301068 6.438658 0.189661 -1.669834 15.063528 1.404745 -0.847226 0.000000 0.000000 0.000000 0.000000 0.000000 0.000000 25.668455 1.557015 -0.177841 -24.368143 -0.913412 3.954657 -18.158078 5.659349 -4.296263 0.000000 0.000000 0.000000 25.668455 1.557015 -0.177841 3.359793 -11.332872 0.850120 0.000000 0.000000 0.000000 -25.850599 -35.679703 -27.707654 -0.000027 -43.985267 -0.000002 0.000000 0.000000 0.000000 25.668455 1.557015 -0.177841 0.611284 31.893633 8.610638 0.000000 0.000000 0.000000 -33.996806 35.443771 11.882225 -0.000005 24.919400 0.000023 0.000000 0.000000 0.000000 
12.899912 102.002174 -12.721561 0.000000 0.000000 0.000000 52.409933 -7.421317 5.285353 -86.344957 -6.488947 7.605710 46.157578 9.703742 -4.466699 -7.983858 14.400013 -4.475861 -6.547585 0.000003 0.000001 0.000000 0.000000 0.000000 52.409933 -7.421317 5.285353 -64.152456 7.523858 -6.816913 62.826218 0.441614 -4.344998 -1.956871 -2.890414 5.302996 -16.374805 0.000003 -0.000002 0.000000 0.000000 0.000000 52.409933 -7.421317 5.285353 6.348393 -0.275726 -1.699660 14.862673 1.352666 -0.606152 0.000000 0.000000 0.000000 0.000000 0.000000 0.000000 25.397847 1.548555 0.060529 -23.787344 -0.699831 3.812284 -17.607302 6.465523 -4.232229 0.000000 0.000000 0.000000 25.397847 1.548555 0.060529 3.282059 -11.154455 -0.322864 0.000000 0.000000 0.000000 -23.304167 -34.650151 -30.083326 0.000007 -41.915918 -0.000004 0.000000 0.000000 0.000000 25.397847 1.548555 0.060529 0.383114 31.571569 9.612375 0.000000 0.000000 0.000000 -32.161889 33.923685 14.344977 0.000010 24.743665 -0.000004 0.000000 0.000000 0.000000 
12.690245 103.921158 -11.606953 0.000000 0.000000 0.000000 49.801870 -8.215176 4.972213 -81.074940 -5.999288 8.349274 43.424311 9.491361 -4.544423 -7.875048 14.645674 -4.312677 -6.397565 -0.000003 0.000001 0.000000 0.000000 0.000000 49.801870 -8.215176 4.972213 -66.334053 7.093761 -7.442937 60.789592 -2.153657 -3.637883 -3.970774 -2.854632 4.532184 -15.749928 0.000000 0.000000 0.000000 0.000000 0.000000 49.801870 -8.215176 4.972213 6.230341 -0.515184 -1.569499 14.598348 1.342922 -0.303598 0.000000 0.000000 0.000000 0.000000 0.000000 0.000000 25.054377 1.591056 0.352063 -23.262072 -0.523336 3.642464 -17.013871 7.039136 -4.179064 0.000000 0.000000 0.000000 25.054377 1.591056 0.352063 3.185961 -10.858426 -1.510806 0.000000 0.000000 0.000000 -21.370323 -33.790401 -32.751331 0.000013 -39.584337 0.000007 0.000000 0.000000 0.000000 25.054377 1.591056 0.352063 0.370551 30.945931 9.971298 0.000000 0.000000 0.000000 -30.635642 32.079947 17.167383 0.000010 24.089838 0.000016 0.000000 0.000000 0.000000 
12.423034 105.887154 -10.353611 0.000000 0.000000 0.000000 47.417769 -9.059397 4.412937 -75.892418 -5.580052 9.188297 40.484621 9.314739 -4.476944 -7.678745 14.850891 -4.266789 -6.177541 -0.000004 0.000001 0.000000 0.000000 0.000000 47.417769 -9.059397 4.412937 -67.239394 5.937516 -7.703885 56.389933 -2.221816 -2.967546 -5.281968 -2.830987 4.463081 -15.257289 -0.000001 -0.000004 0.000000 0.000000 0.000000 47.417769 -9.059397 4.412937 6.024016 -0.601354 -1.357250 14.142159 1.325229 -0.038995 0.000000 0.000000 0.000000 0.000000 0.000000 0.000000 24.509787 1.618867 0.606506 -22.735488 -0.432709 3.671199 -16.351813 7.613685 -4.017349 0.000000 0.000000 0.000000 24.509787 1.618867 0.606506 3.110102 -10.528955 -2.364155 0.000000 0.000000 0.000000 -19.965367 -32.730376 -35.749801 0.000001 -37.322128 -0.000016 0.000000 0.000000 0.000000 24.509787 1.618867 0.606506 0.278573 30.262663 10.663076 0.000000 0.000000 0.000000 -29.109826 29.813977 19.562265 0.000007 23.471612 -0.000010 0.000000 0.000000 0.000000 
12.074332 107.917175 -9.055515 0.000000 0.000000 0.000000 44.848091 -9.947802 3.831953 -70.361098 -5.016975 10.021476 37.245185 9.212553 -4.277367 -7.327850 15.062570 -4.350334 -5.976378 0.000010 0.000001 0.000000 0.000000 0.000000 44.848091 -9.947802 3.831953 -66.438637 4.773927 -7.493315 49.924226 -0.033794 -2.649446 -5.763288 -2.856025 5.442658 -15.263779 -0.000004 0.000004 0.000000 0.000000 0.000000 44.848091 -9.947802 3.831953 5.824856 -0.537481 -1.084769 13.694038 1.268939 0.141102 0.000000 0.000000 0.000000 0.000000 0.000000 0.000000 23.965003 1.592474 0.784295 -22.176560 -0.331579 3.730400 -15.411567 8.275023 -3.993369 0.000000 0.000000 0.000000 23.965003 1.592474 0.784295 3.041431 -10.411234 -3.090810 0.000000 0.000000 0.000000 -18.573923 -31.593863 -38.305975 0.000002 -35.261763 0.000011 0.000000 0.000000 0.000000 23.965003 1.592474 0.784295 0.212399 29.657289 11.250804 0.000000 0.000000 0.000000 -27.771744 27.488841 21.814772 0.000002 23.160712 -0.000002 0.000000 0.000000 0.000000 
11.650955 109.709137 -7.846333 0.000000 0.000000 0.000000 41.822129 -10.743438 3.229345 -64.672917 -4.221322 10.762005 34.298700 9.215122 -4.000079 -6.985033 15.018915 -4.579855 -5.815769 0.000008 0.000004 0.000000 0.000000 0.000000 41.822129 -10.743438 3.229345 -64.135005 3.850100 -7.292642 42.777307 1.282391 -2.628129 -5.899647 -2.831768 6.007201 -14.865710 0.000000 0.000000 0.000000 0.000000 0.000000 41.822129 -10.743438 3.229345 5.695461 -0.336760 -0.744625 13.384575 1.190054 0.286523 0.000000 0.000000 0.000000 0.000000 0.000000 0.000000 23.551098 1.535538 0.932190 -21.563119 -0.195127 3.610859 -14.206541 8.710081 -4.082369 0.000000 0.000000 0.000000 23.551098 1.535538 0.932190 2.974456 -10.466720 -3.738945 0.000000 0.000000 0.000000 -17.231538 -30.703104 -40.381219 -0.000012 -33.406711 -0.000007 0.000000 0.000000 0.000000 23.551098 1.535538 0.932190 0.339254 28.878569 11.192386 0.000000 0.000000 0.000000 -26.898436 25.377585 24.462259 -0.000001 23.007409 -0.000009 0.000000 0.000000 0.000000 
11.143626 111.165298 -6.752415 0.000000 0.000000 0.000000 38.610387 -11.068224 2.487494 -59.295065 -3.364603 11.253345 31.776089 9.305218 -3.656073 -6.646489 14.497585 -4.947688 -5.628285 -0.000003 -0.000001 0.000000 0.000000 0.000000 38.610387 -11.068224 2.487494 -60.964486 2.804698 -7.604025 35.955383 0.839029 -2.494027 -5.250743 -2.767887 6.181709 -14.993017 -0.000005 -0.000000 0.000000 0.000000 0.000000 38.610387 -11.068224 2.487494 5.561038 -0.097732 -0.368940 13.067548 1.029197 0.414873 0.000000 0.000000 0.000000 0.000000 0.000000 0.000000 23.121314 1.394240 1.076155 -20.821690 -0.156644 3.485758 -13.152680 8.656838 -4.010396 0.000000 0.000000 0.000000 23.121314 1.394240 1.076155 2.914200 -10.535453 -4.220682 0.000000 0.000000 0.000000 -15.941573 -30.177797 -42.075885 0.000014 -31.787526 0.000013 0.000000 0.000000 0.000000 23.121314 1.394240 1.076155 0.506604 27.858552 11.089680 0.000000 0.000000 0.000000 -26.151847 23.575445 27.060567 0.000002 23.083056 0.000014 0.000000 0.000000 0.000000 
10.546747 112.389183 -5.749260 0.000000 0.000000 0.000000 35.414801 -10.819179 1.585340 -54.303194 -2.526942 11.585076 29.476955 9.348155 -3.329687 -6.275256 13.520604 -5.360023 -5.429174 0.000013 0.000000 0.000000 0.000000 0.000000 35.414801 -10.819179 1.585340 -57.127887 1.531758 -8.173455 29.672435 0.802941 -2.161578 -4.044426 -2.727819 7.140874 -16.529203 0.000003 0.000001 0.000000 0.000000 0.000000 35.414801 -10.819179 1.585340 5.398529 0.142967 0.036288 12.696416 0.766614 0.491436 0.000000 0.000000 0.000000 0.000000 0.000000 0.000000 22.629373 1.144219 1.184233 -20.046988 -0.259855 3.566718 -12.419844 8.346454 -3.872085 0.000000 0.000000 0.000000 22.629373 1.144219 1.184233 2.865770 -10.664131 -4.425052 0.000000 0.000000 0.000000 -14.678466 -29.822457 -43.401402 0.000024 -30.598021 0.000008 0.000000 0.000000 0.000000 22.629373 1.144219 1.184233 0.592123 26.869752 11.312473 0.000000 0.000000 0.000000 -25.136025 22.043705 29.152258 -0.000004 23.598100 -0.000005 0.000000 0.000000 0.000000 
